<svg width="64px" height="64px" viewBox="-3.6 -3.6 43.20 43.20" xmlns="http://www.w3.org/2000/svg" xmlns:xlink="http://www.w3.org/1999/xlink" aria-hidden="true" role="img" class="iconify iconify--twemoji" preserveAspectRatio="xMidYMid meet" fill="#000000"><g id="SVGRepo_bgCarrier" stroke-width="0"><path transform="translate(-3.6, -3.6), scale(2.7)" fill="#7ed0ec" d="M9.166.33a2.25 2.25 0 00-2.332 0l-5.25 3.182A2.25 2.25 0 00.5 5.436v5.128a2.25 2.25 0 001.084 1.924l5.25 3.182a2.25 2.25 0 002.332 0l5.25-3.182a2.25 2.25 0 001.084-1.924V5.436a2.25 2.25 0 00-1.084-1.924L9.166.33z" strokewidth="0"></path></g><g id="SVGRepo_tracerCarrier" stroke-linecap="round" stroke-linejoin="round"></g><g id="SVGRepo_iconCarrier"><path fill="#D5AB88" d="M36 18.5c0-1.639-.97-3.004-2.273-3.385C32.367 7.658 25.85 2 18 2C10.15 2 3.633 7.658 2.273 15.115C.97 15.496 0 16.861 0 18.5c0 1.736 1.087 3.168 2.51 3.442C4.269 28.868 10.527 34 18 34c7.473 0 13.731-5.132 15.49-12.058C34.912 21.668 36 20.236 36 18.5z"></path><path fill="#662214" d="M18 25c-3 0-4-1-4 1s2 4 4 4s4-2 4-4s-1-1-4-1z"></path><circle fill="#662214" cx="22.5" cy="18.5" r="2.5"></circle><circle fill="#662214" cx="13.5" cy="18.5" r="2.5"></circle><path fill="#FFF" d="M18 26h2v1s0 1-1 1s-1-1-1-1v-1z"></path><path fill="#AA8052" d="M17.982 11h-.031a4.362 4.362 0 0 1-3.135-1.304a3.739 3.739 0 0 1-1.076-2.847a.992.992 0 0 1 1.057-.935c.551.033.972.508.939 1.06c-.029.495.155.983.503 1.336a2.425 2.425 0 0 0 1.725.729c.653-.036 1.27-.247 1.735-.705a3.312 3.312 0 0 0 .032-4.677a4.391 4.391 0 0 0-6.202-.042a.999.999 0 1 1-1.404-1.424a6.394 6.394 0 0 1 9.03.062a5.29 5.29 0 0 1-.052 7.486c-.836.826-1.945 1.261-3.121 1.261z"></path></g></svg>