<svg width="64px" height="64px" viewBox="-10 -10 120.00 120.00" xmlns="http://www.w3.org/2000/svg" version="1.1" fill="#000000"><g id="SVGRepo_bgCarrier" stroke-width="0"><path transform="translate(-10, -10), scale(7.5)" fill="#7ed0ec" d="M9.166.33a2.25 2.25 0 00-2.332 0l-5.25 3.182A2.25 2.25 0 00.5 5.436v5.128a2.25 2.25 0 001.084 1.924l5.25 3.182a2.25 2.25 0 002.332 0l5.25-3.182a2.25 2.25 0 001.084-1.924V5.436a2.25 2.25 0 00-1.084-1.924L9.166.33z" strokewidth="0"></path></g><g id="SVGRepo_tracerCarrier" stroke-linecap="round" stroke-linejoin="round"></g><g id="SVGRepo_iconCarrier"> <rect x="18" width="64" y="10" height="80" style="fill:#aaaaaa; stroke-width: 5; stroke: #222222;"></rect> <rect x="25" width="50" y="20" height="60" style="fill:#EBEBDA; stroke-width: 2; stroke: black;"></rect> <line x1="35" y1="30" x2="65" y2="30" style="stroke-width: 2; stroke: black;"></line> <line x1="35" y1="40" x2="65" y2="40" style="stroke-width: 2; stroke: black;"></line> <line x1="35" y1="50" x2="65" y2="50" style="stroke-width: 2; stroke: black;"></line> <polygon points="40 7, 60 7, 65 20, 35 20, 40 7" style="fill: black; fill-opacity: 1.0; stroke: none;"></polygon> <defs> <mask id="mask_circle"> <circle cx="50" cy="50" r="50" fill="white"></circle> <circle cx="50" cy="50" r="12" fill="#000000"></circle> </mask> <linearGradient x1="20" y1="60" x2="60" y2="40" id="Gradient" gradientUnits="userSpaceOnUse"> <stop style="stop-color:#650E13;stop-opacity:1" offset="0"></stop> <stop style="stop-color:#DD3043;stop-opacity:1" offset="1"></stop> </linearGradient> </defs> <g transform="scale(0.6), translate(56,56)"> <circle cx="50" cy="50" r="48" style="fill:#650E13"></circle> <circle cx="50" cy="50" r="43" style="fill:url(#Gradient);stroke:#eeeeee;stroke-width:3"></circle> <path style="fill:#ffffff" d="m 19,42 0,17 61,0 0,-17 z"></path> </g> </g></svg>