<svg width="64px" height="64px" viewBox="-6.4 -6.4 76.80 76.80" xmlns="http://www.w3.org/2000/svg" fill="#000000"><g id="SVGRepo_bgCarrier" stroke-width="0"><path transform="translate(-6.4, -6.4), scale(4.8)" fill="#7ed0ec" d="M9.166.33a2.25 2.25 0 00-2.332 0l-5.25 3.182A2.25 2.25 0 00.5 5.436v5.128a2.25 2.25 0 001.084 1.924l5.25 3.182a2.25 2.25 0 002.332 0l5.25-3.182a2.25 2.25 0 001.084-1.924V5.436a2.25 2.25 0 00-1.084-1.924L9.166.33z" strokewidth="0"></path></g><g id="SVGRepo_tracerCarrier" stroke-linecap="round" stroke-linejoin="round"></g><g id="SVGRepo_iconCarrier"> <defs> <style>.cls-1{fill:#414042;}.cls-2{fill:#231f20;}.cls-3{fill:#fff200;}.cls-4{fill:#ffbe00;}</style> </defs> <title></title> <g id="price-down"> <path class="cls-1" d="M60.76,34.1A3.28,3.28,0,0,0,57.69,32H54V10a5,5,0,0,0-5-5H15a5,5,0,0,0-5,5V32H6.3a3.29,3.29,0,0,0-2.24,5.71L27.08,59A7.08,7.08,0,0,0,32,61h0a7,7,0,0,0,4.88-2l23-21.34A3.28,3.28,0,0,0,60.76,34.1Z"></path> <path class="cls-2" d="M59.93,37.72l-23,21.34A7,7,0,0,1,32,61h0V5H49a5,5,0,0,1,5,5V32h3.69a3.3,3.3,0,0,1,2.24,5.72Z"></path> <path class="cls-3" d="M38,33v1a6,6,0,0,1-6,6v1a2,2,0,0,1-4,0V40H27a2,2,0,0,1,0-4h5a2,2,0,0,0,2-2V33a2,2,0,0,0-2-2H30a6,6,0,0,1,0-12V18a2,2,0,0,1,4,0v1h1a2,2,0,0,1,0,4H30a2,2,0,0,0,0,4h2A6,6,0,0,1,38,33Z"></path> <path class="cls-4" d="M37,21a2,2,0,0,0-2-2H34V18a2,2,0,0,0-2-2v7h3A2,2,0,0,0,37,21Z"></path> <path class="cls-4" d="M32,27v4a2,2,0,0,1,2,2v1a2,2,0,0,1-2,2v4a6,6,0,0,0,6-6V33A6,6,0,0,0,32,27Z"></path> </g> </g></svg>