<?xml version="1.0" standalone="no"?>
<!DOCTYPE svg PUBLIC "-//W3C//DTD SVG 20010904//EN"
 "http://www.w3.org/TR/2001/REC-SVG-20010904/DTD/svg10.dtd">
<svg version="1.0" xmlns="http://www.w3.org/2000/svg"
 width="512.000000pt" height="512.000000pt" viewBox="0 0 512.000000 512.000000"
 preserveAspectRatio="xMidYMid meet">

<g transform="translate(0.000000,512.000000) scale(0.100000,-0.100000)"
fill="#000000" stroke="none">
<path d="M1800 4485 c-415 -128 -795 -246 -845 -261 l-90 -27 55 -18 c30 -10
93 -30 140 -44 l85 -26 -3 -397 c-2 -374 -3 -399 -22 -438 -24 -50 -18 -93 16
-128 64 -63 174 -17 174 73 0 21 -7 46 -15 57 -12 16 -14 77 -15 371 l0 352
48 6 c26 3 63 7 82 10 20 2 66 -6 105 -19 l70 -22 3 -228 2 -228 23 5 c48 12
391 47 561 57 361 21 770 10 1131 -31 99 -11 190 -22 202 -26 l23 -5 2 228 3
228 358 110 c200 61 353 112 345 116 -10 6 -1633 505 -1673 515 -5 2 -350
-102 -765 -230z"/>
<path d="M2188 3234 c-55 -29 -73 -104 -39 -160 52 -85 188 -58 207 42 17 94
-83 165 -168 118z"/>
<path d="M2814 3231 c-60 -37 -69 -123 -18 -175 93 -92 239 18 179 134 -29 57
-104 76 -161 41z"/>
<path d="M2150 2712 c-85 -27 -56 -137 68 -255 157 -149 389 -179 584 -75 72
38 157 128 193 204 23 48 25 60 15 84 -6 16 -25 34 -41 40 -39 17 -67 -2 -107
-72 -38 -67 -82 -109 -152 -145 -49 -24 -66 -28 -150 -28 -88 0 -101 3 -162
33 -71 35 -120 83 -159 157 -24 44 -59 67 -89 57z"/>
<path d="M1683 1895 c-198 -89 -370 -261 -468 -467 -81 -171 -87 -213 -92
-610 l-5 -346 249 -4 c136 -1 431 -1 656 0 l407 4 0 376 0 377 -347 347 -348
346 -52 -23z"/>
<path d="M3032 1567 l-352 -352 0 -372 0 -371 413 -4 c226 -1 524 -1 660 0
l248 4 -3 356 c-4 334 -6 362 -27 437 -26 93 -85 223 -131 290 -102 148 -267
285 -421 349 l-35 15 -352 -352z"/>
</g>
</svg>
